<svg width="62" height="62" viewBox="0 0 62 62" fill="none" xmlns="http://www.w3.org/2000/svg">
<path d="M31.0005 58.4603C29.2697 58.4603 27.513 58.0728 26.1439 57.272L11.9356 49.0828C6.14894 45.182 5.78727 44.5878 5.78727 38.4653V23.5337C5.78727 17.4112 6.12311 16.817 11.8064 12.9678L26.118 4.70116C28.8305 3.12533 33.093 3.12533 35.8055 4.70116L50.0655 12.9162C55.8522 16.817 56.2139 17.4112 56.2139 23.5337V38.4395C56.2139 44.562 55.878 45.1562 50.1947 49.0053L35.883 57.272C34.488 58.0728 32.7314 58.4603 31.0005 58.4603ZM31.0005 7.41366C29.9155 7.41366 28.8564 7.62033 28.1072 8.0595L13.8989 16.2745C9.68811 19.1162 9.68811 19.1162 9.68811 23.5337V38.4395C9.68811 42.857 9.68811 42.857 14.0023 45.7762L28.1072 53.9137C29.6314 54.792 32.3955 54.792 33.9197 53.9137L48.128 45.6987C52.313 42.857 52.313 42.857 52.313 38.4395V23.5337C52.313 19.1162 52.313 19.1162 47.9989 16.197L33.8939 8.0595C33.1447 7.62033 32.0855 7.41366 31.0005 7.41366Z" fill="black"/>
<path d="M31 40.6875C25.6525 40.6875 21.3125 36.3475 21.3125 31C21.3125 25.6525 25.6525 21.3125 31 21.3125C36.3475 21.3125 40.6875 25.6525 40.6875 31C40.6875 36.3475 36.3475 40.6875 31 40.6875ZM31 25.1875C27.7967 25.1875 25.1875 27.7967 25.1875 31C25.1875 34.2033 27.7967 36.8125 31 36.8125C34.2033 36.8125 36.8125 34.2033 36.8125 31C36.8125 27.7967 34.2033 25.1875 31 25.1875Z" fill="black"/>
</svg>
